<?xml version="1.0" encoding="UTF-8"?>
<svg width="325px" height="76px" version="1.1" viewBox="0 0 650 153" xmlns="http://www.w3.org/2000/svg">
<title>Siemens Healthineers</title>
<desc>Logo of the company</desc>
<g fill="none" fill-rule="evenodd">
<g transform="translate(533.51 24.526)" fill="#EC6602">
<path d="m51.312 94.831c1.9176 0 3.8353 0.7206 5.3077 2.1618 2.9506 2.9696 2.9506 7.7174 0 10.687-2.9477 2.8824-7.6676 2.8824-10.615 0-2.8663-2.8853-2.8663-7.6332 0-10.687 1.4753-1.4412 3.39-2.1618 5.3077-2.1618m-23.573-21.572c1.4811 0 2.9477 0.56951 4.0419 1.7143 2.2668 2.2838 2.2668 5.8375 0 8.1213-2.1853 2.2868-5.878 2.2868-8.1448 0-2.2668-2.2838-2.2668-5.8375 0-8.1213 1.132-1.1448 2.6218-1.7143 4.103-1.7143m46.8-4.1202c2.52 0 5.0371 0.96177 7.0012 2.8853 3.8411 3.9314 3.9284 10.086 0 14.02-3.8411 3.8442-10.074 3.8442-14 0-3.7567-3.9343-3.7567-10.088 0-14.02 1.9613-1.9235 4.4813-2.8853 6.9983-2.8853m-70.103-18.201c1.1436 0 2.2901 0.42423 3.1369 1.2756 1.6994 1.6998 1.6994 4.5038 0 6.2878-1.6965 1.6998-4.5802 1.6998-6.2767 0-1.6994-1.7841-1.6994-4.588 0-6.2878 0.84678-0.85136 1.9933-1.2756 3.1398-1.2756m46.876-3.0568c1.9176 0 3.8353 0.75257 5.3077 2.2548 2.9506 3.0045 2.9506 7.8104 0 10.818-2.9477 3.0045-7.6676 3.0045-10.615 0-2.8663-3.0074-2.8663-7.8133 0-10.818 1.4753-1.5022 3.39-2.2548 5.3077-2.2548m46.774-5.1314c3.2533 0 6.5066 1.2552 9.0149 3.7686 5.0167 5.0239 5.0167 13.029 0 18.053-5.0196 5.0239-13.013 5.0239-18.03 0-5.0196-4.9396-5.0196-13.029 0-18.053 2.5083-2.5134 5.7616-3.7686 9.0149-3.7686m-70.347-16.469c1.4811 0 2.9477 0.56951 4.0419 1.7114 2.2668 2.2868 2.2668 5.9246 0 8.2114-2.1853 2.1996-5.878 2.1996-8.1448 0-2.2668-2.2868-2.2668-5.9246 0-8.2114 1.132-1.1419 2.6218-1.7114 4.103-1.7114m46.855-4.0999c2.4967 0 5.005 0.98502 6.9634 2.9492 3.9109 3.8471 3.9109 10.001 0 13.936-3.9138 3.8471-9.9519 3.8471-13.863 0-3.8265-3.9343-3.9109-10.088 0-13.936 1.9147-1.9642 4.3998-2.9492 6.8994-2.9492m-23.282-21.246c1.9176-0.008717 3.8353 0.7206 5.3077 2.2228 2.9506 2.9173 2.9506 7.8976 0 10.815-2.9477 3.0074-7.6676 2.9202-10.615 0-2.8663-3.0045-2.8663-7.8104 0-10.815 1.4753-1.4586 3.39-2.2112 5.3077-2.2228"/>
</g>
<path d="m424.85 2.2924h16.656l18.263 37.283v-37.283h11.64v55.208h-17.253l-20.576-37.419v37.419h-8.7297v-55.208zm-52.378 0h40.739v8.717h-26.189v14.528h23.279v8.717h-23.279v14.528h26.189v8.717h-40.739v-55.208zm-81.477 0h19.846l13.895 35.65 14.576-35.65h18.612v55.208h-14.55v-39.168l-16.083 39.168h-9.7162l-14.939-39.168v39.168h-11.64v-55.208zm-52.378 0h40.739v8.717h-23.279v14.528h20.369v8.717h-20.369v14.528h23.279v8.717h-40.739v-55.208zm-29.099 0h17.459v55.208h-9.012-8.4475v-55.208zm294.59-1.293c3.7363 0 8.98 0.5114 15.009 1.7841l1.7634 0.2557v10.539c-5.8198-2.0398-10.423-3.0597-14.838-3.0597-6.2825 0-9.5416 1.6998-9.5416 5.0994 0 1.2756 0.49177 2.2955 1.8507 3.2311 1.0185 0.67992 3.7683 2.0398 8.5231 4.2481 6.7073 2.8911 11.267 5.5237 13.56 7.8191 2.6306 2.6354 3.9778 6.0351 3.9778 10.283 0 6.0351-2.6393 10.539-7.9033 13.77-4.3299 2.5483-9.5969 3.8238-16.304 3.8238-5.6889 0-11.334-0.67992-17.154-2.0398v-10.963c5.8198 1.9555 11.547 2.9725 16.47 2.9725 6.623 0 9.9344-1.6969 9.9344-5.1837 0-1.3598-0.46559-2.3797-1.3997-3.3125-1.0185-0.93562-3.5879-2.2955-7.6618-3.9953-7.3039-2.9754-12.067-5.6108-14.36-7.7349-2.8022-2.7197-4.3358-6.375-4.3358-10.707 0-5.4394 2.0369-9.6904 6.2825-12.494 4.0739-2.8911 9.5911-4.3352 16.127-4.3352zm-322.68 0c3.649 0 7.7258 0.68574 16.456 2.0514v10.675c-5.8198-2.0485-10.429-3.0742-14.843-3.0742-6.1981 0-9.5445 1.7085-9.5445 5.1256 0 1.2814 0.53542 2.3071 1.81 3.1585 1.0185 0.68574 3.8324 2.0514 8.4155 4.2713 6.879 2.9899 11.343 5.5527 13.549 7.8598 2.7179 2.5628 3.972 6.0641 3.972 10.335 0 6.0641-2.6393 10.591-7.9033 13.837-4.1612 2.6471-9.5532 3.9285-16.176 3.9285-5.686-0.17143-11.288-0.85426-17.107-2.2199v-11.018c5.8198 1.9642 11.669 2.9899 16.424 2.9899 6.5386 0 9.8268-1.7085 9.8268-5.2098 0-1.3686-0.48014-2.3943-1.583-3.3328-1.0185-0.93853-3.5064-2.3071-7.4988-4.0156-7.301-2.987-12.067-5.637-14.36-7.7726-2.8866-2.9028-4.3358-6.4041-4.3358-10.675 0-5.4685 2.3221-9.7369 6.5677-12.555 4.0768-2.9057 9.7948-4.3585 16.333-4.3585z" fill="#099"/>
<path d="m128.02 110.4c-7.7986 0-10.508 7.8424-10.508 17.306 0 7.7552 1.6441 14.575 8.6832 14.575 5.0021 0 7.6647-3.664 7.6647-7.1595v-23.699c0-0.59566-3.2969-1.0228-5.8402-1.0228zm298.52-0.40389c-6.4862 0-9.8995 6.4942-10.243 13.073 6.2301-0.17143 15.193-1.7085 15.193-8.2869 0-2.9928-1.7925-4.7856-4.9498-4.7856zm-46.544 0c-6.5706 0-9.9868 6.4942-10.327 13.073 6.3145-0.17143 15.193-1.7085 15.193-8.2869 0-2.9928-1.8798-4.7856-4.8654-4.7856zm-299.74 0c-6.5735 0-9.9868 6.4942-10.327 13.073 6.3145-0.17143 15.19-1.7085 15.19-8.2869 0-2.9928-1.8769-4.7856-4.8625-4.7856zm202-8.9088h14.55v49.396h-7.7666-6.783v-49.396zm194-0.49106c2.7964 0 5.6801 0.42423 7.9673 1.6998l-2.3745 11.477c-2.034-1.0199-5.04-1.6998-7.4988-1.6998-4.8304 0-5.8606 3.2282-8.7705 8.2463v30.164h-11.64v-40.11l-1.1611-9.2865h10.764l1.2716 7.4036c2.2872-5.6108 6.9489-7.8947 11.442-7.8947zm-49.044 0c9.7307 0 16.045 4.8699 16.045 14.098 0 14.441-14.765 17.26-26.541 17.942 0.68383 4.6142 3.7538 9.4841 11.095 9.4841 5.1185 0 9.3001-2.2199 12.032-4.0999l3.8411 8.9727c-1.1116 0.85426-7.8509 5.3813-17.582 5.3813-16.386 0-22.872-10.338-22.872-24.779 0-14.098 8.2787-26.999 23.981-26.999zm-46.544 0c9.7307 0 15.961 4.8699 15.961 14.098 0 14.441-14.68 17.26-26.457 17.942 0.68383 4.6142 3.7567 9.4841 11.095 9.4841 5.1214 0 9.2157-2.2199 11.948-4.0999l3.9255 8.9727c-1.196 0.85426-7.9382 5.3813-17.666 5.3813-16.301 0-22.788-10.338-22.788-24.779 0-14.098 8.1943-26.999 23.981-26.999zm-47.065 0c9.463 0 15.58 5.3551 15.58 16.832v33.055h-14.55v-30.591c0-5.1837-0.92244-9.179-6.1254-9.179-5.0312 0-8.4242 4.0795-8.4242 8.6705v31.099h-11.64v-39.517l-1.679-9.8792h11.171l1.0534 6.2152c3.2416-4.4224 8.2176-6.7063 14.614-6.7063zm-203.28 0c3.3057 0 9.3437 0.7671 18.073 3.4955v36.826l-0.1164 9.5654h-11.36l-0.67801-4.867-0.42485-0.049396c-2.8808 4.434-7.7142 6.4128-12.885 6.4128-13.819 0-18.222-10.475-18.222-23.518 0-16.792 8.657-27.865 25.613-27.865zm-49.562 0c9.7278 0 16.042 4.8699 16.042 14.098 0 14.441-14.593 17.26-26.541 17.942 0.68383 4.6142 3.7567 9.4841 11.095 9.4841 5.1214 0 9.303-2.2199 12.032-4.0999l3.8411 8.9727c-1.1087 0.85426-7.8509 5.3813-17.582 5.3813-16.386 0-22.872-10.338-22.872-24.779 0-14.098 8.2787-26.999 23.983-26.999zm424.4-0.034868c6.0439-0.33996 12.789 1.3628 15.699 4.0912v0.084264l-3.8673 9.2051c-3.7451-2.6412-7.2515-4.0069-10.572-3.9197-3.0641 0.084265-5.4997 1.447-5.4124 4.6868 0.25316 3.7483 3.5908 4.6868 7.9324 5.8811 7.0624 1.787 14.986 3.9197 15.583 13.973 0.59653 10.995-6.719 16.789-17.782 17.387-8.5115 0.42423-15.746-2.3013-18.554-4.0912l4.0011-9.118c3.489 1.7899 8.9363 3.7483 13.278 3.4926 3.5763-0.084264 6.0439-1.7027 5.8722-5.3697-0.25316-3.7483-3.6578-4.5154-7.915-5.6225-7.3184-1.7056-14.707-4.0912-15.303-14.148-0.50923-10.141 7.0827-15.938 17.04-16.533zm-275.29-14.002h14.55v19.163c2.9099-3.2369 6.7277-5.0239 11.395-5.0239 10.016 0 14.794 5.7067 14.794 17.123v32.663h-14.55v-30.62c0-4.8554 0.33173-8.7751-4.7606-8.7751-4.9236 0-6.879 3.9197-6.879 8.4351v30.96h-14.55v-63.925zm-37.829 0h14.55v14.528h11.64v11.623h-11.64v21.76c0 5.2883 0.80314 7.4182 4.3649 7.4182 1.6936 0 3.4104-0.59566 5.6132-1.4499l2.7237 8.8681c-2.7964 1.8771-8.203 3.0684-12.44 3.0684-13.732 0-14.811-7.8424-14.811-15.943v-23.722h-5.8198v-11.623h5.8198v-14.528zm-32.009 0h11.64v47.888c0 5.2941 1.842 7.4269 5.3106 7.4269 1.6936 0 3.8847-0.59566 6.0817-1.4499l2.9594 8.8797c-2.7935 1.8771-7.5832 3.0713-11.727 3.0713-13.706 0-14.264-7.854-14.264-15.964v-49.852zm-160.05 0h14.55v26.151h17.459v-26.151h14.55v63.925h-14.55v-26.151h-17.459v26.151h-14.55v-63.925zm288.9-6.6336c4.3154 0 7.2777 3.1759 7.2777 6.9532 0 4.036-2.9623 6.8661-7.2777 6.8661-4.3998 0-7.2777-2.8301-7.2777-6.8661 0-3.7774 2.9623-6.9532 7.2777-6.9532z" fill="#EC6602"/>
</g>
</svg>
